<?xml version="1.0" ?><svg id="Layer_1" style="enable-background:new 0 0 1024 1024;" version="1.1" viewBox="0 0 1024 1024" xml:space="preserve" xmlns="http://www.w3.org/2000/svg" xmlns:xlink="http://www.w3.org/1999/xlink"><g id="XMLID_1_"><path d="M250.5,339.5l-16.7-11c23.5-35.6,53.2-66,88.3-90.3l11.4,16.4C300.5,277.5,272.6,306.1,250.5,339.5z" id="XMLID_30_"/><path d="M199.3,493.4l-20-1.2c2.5-42.7,13-83.9,31.2-122.4l18.1,8.5C211.6,414.5,201.7,453.2,199.3,493.4z" id="XMLID_29_"/><path d="M214,661.2c-19.1-38.1-30.6-79-34.1-121.7l19.9-1.6c3.3,40.1,14,78.5,32,114.3L214,661.2z" id="XMLID_28_"/><path d="M328.5,790.2c-35.6-23.5-66-53.2-90.3-88.3l16.4-11.4c22.9,33,51.5,60.9,84.9,83L328.5,790.2z" id="XMLID_21_"/><path d="M492.2,844.6c-42.7-2.5-83.9-13-122.4-31.2l8.5-18.1c36.2,17.1,74.9,27,115,29.3L492.2,844.6z" id="XMLID_19_"/><path d="M539.5,844.1l-1.6-19.9c40.1-3.3,78.5-14,114.3-32l9,17.9C623.1,829.1,582.2,840.6,539.5,844.1z" id="XMLID_18_"/><path d="M701.9,785.8l-11.4-16.4c33-22.9,60.9-51.5,83-84.9l16.7,11C766.7,731.1,737,761.5,701.9,785.8z" id="XMLID_14_"/><path d="M813.4,654.2l-18.1-8.5c17.1-36.2,27-74.9,29.3-115l20,1.2C842.1,574.5,831.6,615.7,813.4,654.2z" id="XMLID_10_"/><path d="M824.2,486.1c-3.3-40.1-14-78.5-32-114.3l17.9-9c19.1,38.1,30.6,79,34.1,121.7L824.2,486.1z" id="XMLID_8_"/><path d="M769.4,333.5c-22.9-33-51.5-60.9-84.9-83l11-16.7c35.6,23.5,66,53.2,90.3,88.3L769.4,333.5z" id="XMLID_6_"/><path d="M645.7,228.7c-36.2-17.1-74.9-27-115-29.3l1.2-20c42.7,2.5,83.9,13,122.4,31.2L645.7,228.7z" id="XMLID_4_"/><path d="M371.8,231.9l-9-17.9c38.1-19.1,79-30.6,121.7-34.1l1.6,19.9C446,203.1,407.6,213.9,371.8,231.9z" id="XMLID_3_"/><path d="M541.2,233.3h-20v-62.2c0-18.3,8.6-35.7,23.1-46.5c3.3-2.4,8.7-7.4,8.7-13.9c0-11.4-18.4-24.2-44.8-24.2   s-44.8,12.7-44.8,24.2c0,6.4,5.5,11.5,8.7,13.9c14.5,10.8,23.1,28.1,23.1,46.5v62.2h-20v-62.2c0-12-5.6-23.4-15-30.4   c-10.8-8.1-16.8-18.7-16.8-29.9c0-24.8,28.5-44.2,64.8-44.2c36.3,0,64.8,19.4,64.8,44.2c0,11.3-6,21.9-16.8,29.9   c-9.4,7-15,18.4-15,30.4V233.3z" id="XMLID_15_"/><path d="M515.8,957.4c-36.3,0-64.8-19.4-64.8-44.2c0-11.3,6-21.9,16.8-29.9c9.4-7,15-18.4,15-30.4v-62.2h20v62.2   c0,18.3-8.6,35.7-23.1,46.5c-3.3,2.4-8.7,7.4-8.7,13.9c0,11.4,18.4,24.2,44.8,24.2c26.4,0,44.8-12.7,44.8-24.2   c0-6.4-5.5-11.5-8.7-13.9c-14.5-10.8-23.1-28.1-23.1-46.5v-62.2h20v62.2c0,12,5.6,23.4,15,30.4c10.8,8.1,16.8,18.7,16.8,29.9   C580.5,938,552.1,957.4,515.8,957.4z" id="XMLID_11_"/><path d="M110.8,580.5c-24.8,0-44.2-28.5-44.2-64.8c0-36.3,19.4-64.8,44.2-64.8c11.3,0,21.9,6,29.9,16.8   c7,9.4,18.4,15,30.4,15h62.2v20h-62.2c-18.3,0-35.7-8.6-46.5-23.1c-2.4-3.3-7.4-8.7-13.9-8.7c-11.4,0-24.2,18.4-24.2,44.8   c0,26.4,12.7,44.8,24.2,44.8c6.4,0,11.5-5.5,13.9-8.7c10.8-14.5,28.1-23.1,46.5-23.1h62.2v20h-62.2c-12,0-23.4,5.6-30.4,15   C132.7,574.6,122,580.5,110.8,580.5z" id="XMLID_7_"/><path d="M913.2,573c-11.3,0-21.9-6-29.9-16.8c-7-9.4-18.4-15-30.4-15h-62.2v-20h62.2c18.3,0,35.7,8.6,46.5,23.1   c2.4,3.3,7.4,8.7,13.9,8.7c11.4,0,24.2-18.4,24.2-44.8s-12.7-44.8-24.2-44.8c-6.4,0-11.5,5.5-13.9,8.7   c-10.8,14.5-28.1,23.1-46.5,23.1h-62.2v-20h62.2c12,0,23.4-5.6,30.4-15c8.1-10.8,18.7-16.8,29.9-16.8c24.8,0,44.2,28.5,44.2,64.8   C957.4,544.6,938,573,913.2,573z" id="XMLID_5_"/><path d="M340.8,289l-31.1-53.8c-6-10.4-16.6-17.5-28.2-18.8c-13.4-1.6-23.9-7.8-29.5-17.5   c-12.4-21.4,2.6-52.5,34-70.6c14.3-8.2,29.9-12.5,43.9-12c15.8,0.5,27.9,6.9,34.3,17.9c5.6,9.7,5.8,21.9,0.4,34.3   c-4.6,10.8-3.8,23.4,2.2,33.9l31.1,53.8l-17.3,10l-31.1-53.8c-9.2-15.9-10.4-35.2-3.2-51.8c1.6-3.7,3.8-10.8,0.6-16.4   c-3.7-6.5-12.7-7.7-17.6-7.9c-10.2-0.3-22.3,3.1-33.2,9.4c-22.9,13.2-32.4,33.4-26.7,43.3c3.2,5.6,10.5,7.2,14.5,7.7   c17.9,2.1,34,12.8,43.2,28.7l31.1,53.8L340.8,289z" id="XMLID_16_"/><path d="M696.2,907.9c-0.7,0-1.4,0-2.1,0c-15.8-0.5-27.9-6.9-34.3-17.9c-5.6-9.7-5.8-21.9-0.4-34.3   c4.6-10.8,3.8-23.4-2.2-33.9L626.1,768l17.3-10l31.1,53.8c9.2,15.9,10.4,35.2,3.2,51.8c-1.6,3.7-3.8,10.8-0.6,16.4   c3.7,6.5,12.7,7.7,17.6,7.9c10.2,0.3,22.3-3.1,33.2-9.4c22.8-13.2,32.4-33.4,26.7-43.3c-3.2-5.6-10.5-7.2-14.5-7.7   c-17.9-2.1-34-12.8-43.2-28.7L665.8,745l17.3-10l31.1,53.8c6,10.4,16.6,17.5,28.2,18.8c13.4,1.6,23.9,7.8,29.5,17.5   c12.4,21.4-2.6,52.5-34,70.6C724.4,903.6,709.7,907.9,696.2,907.9z" id="XMLID_12_"/><path d="M182.2,776.3c-18.9,0-40.2-14.4-54-38.4c-8.2-14.3-12.5-29.8-12-43.9c0.5-15.8,6.9-27.9,17.9-34.3   c9.7-5.6,21.9-5.8,34.3-0.4c10.8,4.6,23.4,3.8,33.9-2.2l53.8-31.1l10,17.3l-53.8,31.1c-15.9,9.2-35.2,10.4-51.8,3.2   c-3.7-1.6-10.8-3.8-16.4-0.6c-6.5,3.7-7.7,12.7-7.9,17.6c-0.3,10.2,3.1,22.3,9.4,33.2c13.2,22.8,33.4,32.4,43.3,26.7   c5.6-3.2,7.2-10.5,7.7-14.5c2.1-17.9,12.8-34,28.7-43.2l53.8-31.1l10,17.3l-53.8,31.1c-10.4,6-17.5,16.6-18.8,28.2   c-1.6,13.4-7.8,23.9-17.5,29.5C193.7,774.9,188.1,776.3,182.2,776.3z" id="XMLID_9_"/><path d="M768,397.9l-10-17.3l53.8-31.1c15.9-9.2,35.2-10.4,51.8-3.2c3.7,1.6,10.8,3.8,16.4,0.6   c6.5-3.7,7.7-12.7,7.9-17.6c0.3-10.2-3.1-22.3-9.4-33.2c-13.2-22.9-33.4-32.4-43.3-26.7c-5.6,3.2-7.2,10.5-7.7,14.5   c-2.1,17.9-12.8,34-28.7,43.2L745,358.2l-10-17.3l53.8-31.1c10.4-6,17.5-16.6,18.8-28.2c1.6-13.4,7.8-23.9,17.5-29.5   c21.4-12.4,52.5,2.6,70.6,34c8.2,14.3,12.5,29.8,12,43.9c-0.5,15.8-6.9,27.9-17.9,34.3c-9.7,5.6-21.9,5.8-34.3,0.4   c-10.8-4.6-23.4-3.8-33.9,2.2L768,397.9z" id="XMLID_17_"/><path d="M252.3,404.5l-53.8-31.1c-10.4-6-23.1-6.8-33.8-2.2c-12.4,5.3-24.6,5.2-34.3-0.4   c-11-6.3-17.4-18.5-17.9-34.3c-0.5-14,3.8-29.6,12-43.9c18.2-31.5,49.2-46.4,70.6-34c9.7,5.6,16,16.1,17.5,29.5   c1.4,11.6,8.4,22.2,18.8,28.2l53.8,31.1l-10,17.3l-53.8-31.1c-15.9-9.2-26.6-25.3-28.7-43.2c-0.5-4-2.1-11.3-7.7-14.5   c-9.9-5.7-30.1,3.8-43.3,26.7c-6.3,10.9-9.7,23-9.4,33.2c0.2,5,1.4,13.9,7.9,17.6c5.6,3.2,12.7,1,16.4-0.6   c16.5-7.1,35.9-5.9,51.7,3.2l53.8,31.1L252.3,404.5z" id="XMLID_13_"/><path d="M845.6,769.8c-5.9,0-11.5-1.4-16.6-4.3c-9.7-5.6-16-16.1-17.5-29.5c-1.4-11.6-8.4-22.2-18.8-28.2   l-53.8-31.1l10-17.3l53.8,31.1c15.9,9.2,26.6,25.3,28.7,43.2c0.5,4,2.1,11.3,7.7,14.5c9.9,5.7,30.1-3.9,43.3-26.7   c6.3-10.9,9.7-23,9.4-33.2c-0.2-5-1.4-13.9-7.9-17.6c-5.6-3.2-12.7-1-16.4,0.6c-16.5,7.1-35.9,5.9-51.7-3.2l-53.8-31.1l10-17.3   l53.8,31.1c10.4,6,23.1,6.8,33.8,2.2c12.4-5.3,24.6-5.2,34.3,0.4c11,6.3,17.4,18.5,17.9,34.3c0.5,14-3.8,29.6-12,43.9   C885.7,755.4,864.4,769.8,845.6,769.8z" id="XMLID_20_"/><path d="M334.3,911.7c-13.5,0-28.2-4.2-41.7-12.1c-31.5-18.2-46.4-49.2-34-70.6c5.6-9.7,16.1-16,29.5-17.5   c11.6-1.4,22.2-8.4,28.2-18.8l31.1-53.8l17.3,10l-31.1,53.8c-9.2,15.9-25.3,26.6-43.2,28.7c-4,0.5-11.3,2.1-14.5,7.7   c-5.7,9.9,3.8,30.1,26.7,43.3c10.9,6.3,23,9.7,33.2,9.4c5-0.2,13.9-1.4,17.6-7.9c3.2-5.6,1-12.7-0.6-16.4   c-7.1-16.5-5.9-35.9,3.2-51.7l31.1-53.8l17.3,10l-31.1,53.8c-6,10.4-6.8,23.1-2.2,33.8c5.3,12.4,5.2,24.6-0.4,34.3   c-6.3,11-18.5,17.4-34.3,17.9C335.7,911.6,335,911.7,334.3,911.7z" id="XMLID_22_"/><path d="M676.6,285.2l-17.3-10l31.1-53.8c9.2-15.9,25.3-26.6,43.2-28.7c4-0.5,11.3-2.1,14.5-7.7   c5.7-9.9-3.8-30.1-26.7-43.3c-10.9-6.3-23-9.7-33.2-9.4c-5,0.2-13.9,1.4-17.6,7.9c-3.2,5.6-1,12.7,0.6,16.4   c7.1,16.5,5.9,35.9-3.2,51.7l-31.1,53.8l-17.3-10l31.1-53.8c6-10.4,6.8-23.1,2.2-33.8c-5.3-12.4-5.2-24.6,0.4-34.3   c6.3-11,18.5-17.4,34.3-17.9c14-0.5,29.6,3.8,43.9,12c31.5,18.2,46.4,49.2,34,70.6c-5.6,9.7-16.1,16-29.5,17.5   c-11.6,1.4-22.2,8.4-28.2,18.8L676.6,285.2z" id="XMLID_23_"/><path d="M485.4,405.7c-30,0-54.4-24.4-54.4-54.4c0-30,24.4-54.4,54.4-54.4c30,0,54.4,24.4,54.4,54.4   C539.8,381.3,515.4,405.7,485.4,405.7z M485.4,316.9c-19,0-34.4,15.4-34.4,34.4s15.4,34.4,34.4,34.4s34.4-15.4,34.4-34.4   S504.4,316.9,485.4,316.9z" id="XMLID_26_"/><path d="M521.2,574.4c-30,0-54.4-24.4-54.4-54.4c0-30,24.4-54.4,54.4-54.4c30,0,54.4,24.4,54.4,54.4   C575.6,550,551.2,574.4,521.2,574.4z M521.2,485.5c-19,0-34.4,15.4-34.4,34.4s15.4,34.4,34.4,34.4s34.4-15.4,34.4-34.4   S540.2,485.5,521.2,485.5z" id="XMLID_24_"/><path d="M665,493.5c-30,0-54.4-24.4-54.4-54.4c0-30,24.4-54.4,54.4-54.4c30,0,54.4,24.4,54.4,54.4   C719.4,469.1,695,493.5,665,493.5z M665,404.6c-19,0-34.4,15.4-34.4,34.4s15.4,34.4,34.4,34.4s34.4-15.4,34.4-34.4   S684,404.6,665,404.6z" id="XMLID_25_"/><path d="M349.9,548.1c-30,0-54.4-24.4-54.4-54.4s24.4-54.4,54.4-54.4c30,0,54.4,24.4,54.4,54.4   S379.9,548.1,349.9,548.1z M349.9,459.3c-19,0-34.4,15.4-34.4,34.4s15.4,34.4,34.4,34.4s34.4-15.4,34.4-34.4   S368.9,459.3,349.9,459.3z" id="XMLID_27_"/><path d="M448.4,718.8c-30,0-54.4-24.4-54.4-54.4c0-30,24.4-54.4,54.4-54.4c30,0,54.4,24.4,54.4,54.4   C502.8,694.3,478.4,718.8,448.4,718.8z M448.4,629.9c-19,0-34.4,15.4-34.4,34.4s15.4,34.4,34.4,34.4s34.4-15.4,34.4-34.4   S467.4,629.9,448.4,629.9z" id="XMLID_32_"/><path d="M652.1,666.3c-30,0-54.4-24.4-54.4-54.4s24.4-54.4,54.4-54.4c30,0,54.4,24.4,54.4,54.4   S682.1,666.3,652.1,666.3z M652.1,577.4c-19,0-34.4,15.4-34.4,34.4s15.4,34.4,34.4,34.4s34.4-15.4,34.4-34.4S671,577.4,652.1,577.4   z" id="XMLID_33_"/></g></svg>