<svg xmlns="http://www.w3.org/2000/svg" viewBox="0 0 512 512"><path d="M416,7.64H96A40.41,40.41,0,0,0,55.64,48V242A40.4,40.4,0,0,0,96,282.33H228a.21.21,0,0,1,.17.1l15.79,25a14.2,14.2,0,0,0,24,0l15.79-25a.19.19,0,0,1,.17-.1H416.79a39.61,39.61,0,0,0,39.57-39.56V48A40.41,40.41,0,0,0,416,7.64Zm26.36,235.13a25.6,25.6,0,0,1-25.57,25.56H284A14.14,14.14,0,0,0,272,275l-15.78,25a.23.23,0,0,1-.36,0L240,275a14.14,14.14,0,0,0-12-6.63H96A26.38,26.38,0,0,1,69.64,242V48A26.39,26.39,0,0,1,96,21.64H416A26.39,26.39,0,0,1,442.36,48Z"/><path d="M404.55,326.53H386.6v-2.61a7,7,0,0,0-4.74-6.63A154.55,154.55,0,0,0,334,310.4c-32.05.47-58.42,11.78-76.81,32.82-18.4-21-44.77-32.35-76.82-32.82a155.28,155.28,0,0,0-47.89,6.89,7,7,0,0,0-4.73,6.63v2.61H109.37a7,7,0,0,0-7,7V494.74c0,.25,0,.49,0,.73l.06.37c0,.18.06.35.1.52l.09.36c.08.25.16.48.25.71a.56.56,0,0,1,0,.12l.13.24c.08.16.16.32.25.48s.13.2.19.3a6.21,6.21,0,0,0,.47.64l.18.2c.15.16.3.32.46.47l.19.17a6.12,6.12,0,0,0,.7.53l.1.06a6.16,6.16,0,0,0,.71.4l.15.07a6.49,6.49,0,0,0,.87.33h0a7.86,7.86,0,0,0,.84.19l.22,0a7,7,0,0,0,.92.07H404.55a7.14,7.14,0,0,0,.93-.07l.22,0a7.13,7.13,0,0,0,.8-.18l.08,0a8.71,8.71,0,0,0,.85-.32l.18-.09a5.32,5.32,0,0,0,.66-.37l.14-.08c.24-.16.47-.34.69-.52l.17-.16a6.14,6.14,0,0,0,.51-.51l.12-.14a6.05,6.05,0,0,0,.53-.72l.09-.14a7.44,7.44,0,0,0,.42-.79s0,0,0,0h0a7,7,0,0,0,.32-.91.65.65,0,0,0,0-.13,6.91,6.91,0,0,0,.16-.79c0-.06,0-.12,0-.17a7.37,7.37,0,0,0,.05-.82V333.53A7,7,0,0,0,404.55,326.53Zm-288.18,14h11.36V464.47L116.37,476.8Zm9,147.21,13-14.06q2.78-.48,5.47-.85a157.45,157.45,0,0,1,53.88,1.38,136.26,136.26,0,0,1,24.56,7.48,124.06,124.06,0,0,1,12.62,6.05Zm124.83-7.17c-3-2-6.63-4.17-10.78-6.36a146.57,146.57,0,0,0-39.75-14,163.24,163.24,0,0,0-32-3.11A183.35,183.35,0,0,0,141.73,459V329.17c1-.27,2.21-.57,3.53-.88a146.43,146.43,0,0,1,35.29-3.88c23.45.42,42.77,7,57.68,19.71a79.66,79.66,0,0,1,11.93,12.63Zm14,0V356.75a79.55,79.55,0,0,1,12-12.65c14.91-12.67,34.22-19.27,57.66-19.69a147,147,0,0,1,35.13,3.84c1.38.33,2.62.64,3.69.92V459a171.37,171.37,0,0,0-57.91,1.24,146.44,146.44,0,0,0-39.75,14C270.78,476.4,267.19,478.57,264.16,480.57Zm15.34,7.17a126.22,126.22,0,0,1,12.62-6.05,134.67,134.67,0,0,1,24.48-7.48,160.23,160.23,0,0,1,55.83-1.1c1.23.18,2.43.37,3.6.58l12.73,14.05Zm118.05-11.15L386.6,464.51v-124h10.95Z"/><path d="M344.17 435.23a7 7 0 0 0 2.87-13.7c-39.51-8.27-62.32 12.1-63.27 13a7 7 0 1 0 9.46 10.32C293.41 444.66 311.61 428.41 344.17 435.23zM287.58 415.3a7 7 0 0 0 4.73-1.84c.18-.17 18.38-16.42 50.94-9.6a7 7 0 1 0 2.87-13.71c-39.51-8.26-62.31 12.11-63.27 13a7 7 0 0 0 4.73 12.17zM165.51 421.53a7 7 0 1 0 2.87 13.7c32.09-6.72 50.12 8.88 51 9.62a7 7 0 0 0 9.43-10.34C227.82 433.63 205 413.25 165.51 421.53zM166.42 390.15a7 7 0 1 0 2.87 13.71c32.1-6.72 50.13 8.87 51 9.62a7 7 0 0 0 9.43-10.35C228.74 402.26 205.93 381.88 166.42 390.15zM260 35.29c-1.76 0-3.53 0-5.21.11a105.95 105.95 0 0 0-37.37 203l.58.72.36-.3a105.77 105.77 0 0 0 41.07 8.44h.29a105.11 105.11 0 0 0 75.91-32 106.72 106.72 0 0 0 10.83-13 105.42 105.42 0 0 0 19.25-60.64h0A106 106 0 0 0 260 35.29zM179.59 186.58A92 92 0 0 1 167.68 141a94.3 94.3 0 0 1 .7-11c4.13 9.24 7 17.47 6.5 20.89l-.26 2 1 1.75a52.66 52.66 0 0 0 28.18 21.8c.31 3.22-.81 11-2.65 17.7l-.73 2.69 1.58 2.3c.77 1.11 7.37 10.46 15.65 15.46.64 1.44 1.27 4.26-.82 8.07A92.22 92.22 0 0 1 179.59 186.58zM335 194.15a91.83 91.83 0 0 1-107.19 33.38c4.56-9.12 1.94-17.18-1-21l-.82-1.07-1.19-.61c-4.25-2.21-8.73-7.16-11.28-10.39 4.28-17.13 2.77-26.86-4.49-28.95A42 42 0 0 1 186.89 150c-.27-10.53-8.86-28.42-14.22-38.6.33-1 .67-1.94 1-2.9a91.47 91.47 0 0 1 20.41-31.72 92.62 92.62 0 0 1 34.51-22.09 91.55 91.55 0 0 1 26.79-5.27c1.38-.07 2.8-.1 4.24-.1h.27a91.17 91.17 0 0 1 13.56 1.05c-1.93 4.46-3.72 9.28-4.18 12.63-.67.67-1.92 1.7-2.81 2.44-4.19 3.46-9.41 7.77-9.25 14 .07 2.41 1 5.95 5.31 9.1 7.83 5.79 19.38 11.27 35.28 16.75 4.12 1.42 12.55 4.33 14.39 6.33.64 3 2.56 6.13 4.77 9.73a51.57 51.57 0 0 1 3.26 5.84c-.15.43-.37 1-.55 1.44-1.56 4-5.72 14.54 4.58 19.87C329.57 151.17 338 155.3 342 157a118.22 118.22 0 0 1 5.62 11.23A91.64 91.64 0 0 1 335 194.15zm16.35-44.81c-1.73-2.37-2.81-2.74-3.87-3.11-1.51-.52-10-4.52-17.65-8.46a1.91 1.91 0 0 1-.29-.18c-.07-1 .89-3.43 1.37-4.64a24.54 24.54 0 0 0 1.35-4.13c.83-4.3-1.87-8.71-5-13.81a41.06 41.06 0 0 1-3.24-5.9c-1.3-8-11.46-11.52-22.23-15.23-14.53-5-25.32-10.08-32.06-15.06l0 0a38.65 38.65 0 0 1 4.49-4.13c3.63-3 7.05-5.82 7.05-10.1.11-1.48 1.92-6.32 4.26-11.58a91.93 91.93 0 0 1 66.23 88.55Q351.66 145.46 351.31 149.34z"/><path d="M276.19,104a30.78,30.78,0,0,0-18.52,6.16,30.88,30.88,0,0,0-49.39,24.72v4.67a32.59,32.59,0,0,0,12.5,25.76l27.62,21.77a14.93,14.93,0,0,0,18.55,0l27.63-21.77a32.61,32.61,0,0,0,12.49-25.76v-4.67A30.92,30.92,0,0,0,276.19,104Zm16.88,35.55a18.68,18.68,0,0,1-7.16,14.76l-27.63,21.78a1,1,0,0,1-1.21,0l-27.63-21.78a18.68,18.68,0,0,1-7.16-14.76v-4.67a16.88,16.88,0,0,1,30-10.66,7,7,0,0,0,10.85,0,16.88,16.88,0,0,1,30,10.66Z"/></svg>