<svg id="Capa_1" enable-background="new 0 0 512 512" height="512" viewBox="0 0 512 512" width="512" xmlns="http://www.w3.org/2000/svg"><g><g><path d="m441.87 0h-371.74c-4.143 0-7.5 3.358-7.5 7.5v362.29c0 4.142 3.357 7.5 7.5 7.5s7.5-3.358 7.5-7.5v-354.79h356.74v61.115c0 4.142 3.357 7.5 7.5 7.5s7.5-3.358 7.5-7.5v-68.615c0-4.142-3.357-7.5-7.5-7.5z"/><path d="m441.87 103.677c-4.143 0-7.5 3.358-7.5 7.5v385.823h-356.74v-92.147c0-4.142-3.357-7.5-7.5-7.5s-7.5 3.358-7.5 7.5v99.647c0 4.142 3.357 7.5 7.5 7.5h371.74c4.143 0 7.5-3.358 7.5-7.5v-393.323c0-4.142-3.357-7.5-7.5-7.5z"/><path d="m325.888 195.041c.52-.398.934-.846 1.245-1.337 15.681-17.15 25.262-39.969 25.262-64.984 0-53.152-43.242-96.395-96.395-96.395s-96.395 43.242-96.395 96.395c0 53.152 43.242 96.394 96.395 96.394 27.481 0 52.312-11.561 69.888-30.073zm-124.93-6.424c10.708-20.325 31.79-33.205 55.042-33.205s44.333 12.88 55.042 33.205c-14.501 13.336-33.834 21.496-55.042 21.496s-40.54-8.159-55.042-21.496zm24.661-78.585c0-16.752 13.629-30.381 30.381-30.381s30.381 13.629 30.381 30.381-13.629 30.381-30.381 30.381-30.381-13.629-30.381-30.381zm30.381-62.707c44.881 0 81.395 36.514 81.395 81.395 0 17.999-5.883 34.643-15.812 48.135-8.888-14.312-22.121-25.181-37.54-31.183 10.548-8.317 17.338-21.196 17.338-35.64 0-25.023-20.357-45.381-45.381-45.381s-45.381 20.358-45.381 45.381c0 14.444 6.791 27.323 17.338 35.64-15.419 6.002-28.652 16.872-37.54 31.183-9.929-13.492-15.812-30.137-15.812-48.135 0-44.881 36.514-81.395 81.395-81.395z"/><path d="m147.483 249.939v32.325c0 4.142 3.357 7.5 7.5 7.5h19.33c4.143 0 7.5-3.358 7.5-7.5s-3.357-7.5-7.5-7.5h-11.83v-17.325h187.033v17.325h-140.086c-4.143 0-7.5 3.358-7.5 7.5s3.357 7.5 7.5 7.5h147.587c4.143 0 7.5-3.358 7.5-7.5v-32.325c0-4.142-3.357-7.5-7.5-7.5h-202.034c-4.142 0-7.5 3.358-7.5 7.5z"/><path d="m389.342 307.089h-189.911c-4.143 0-7.5 3.358-7.5 7.5s3.357 7.5 7.5 7.5h189.911c4.143 0 7.5-3.358 7.5-7.5s-3.358-7.5-7.5-7.5z"/><path d="m115.158 314.589c0 4.142 3.357 7.5 7.5 7.5h40.407c4.143 0 7.5-3.358 7.5-7.5s-3.357-7.5-7.5-7.5h-40.407c-4.142 0-7.5 3.358-7.5 7.5z"/><path d="m389.342 343.455h-189.911c-4.143 0-7.5 3.358-7.5 7.5s3.357 7.5 7.5 7.5h189.911c4.143 0 7.5-3.358 7.5-7.5s-3.358-7.5-7.5-7.5z"/><path d="m122.658 358.455h40.407c4.143 0 7.5-3.358 7.5-7.5s-3.357-7.5-7.5-7.5h-40.407c-4.143 0-7.5 3.358-7.5 7.5s3.358 7.5 7.5 7.5z"/><path d="m389.342 379.821h-189.911c-4.143 0-7.5 3.358-7.5 7.5s3.357 7.5 7.5 7.5h189.911c4.143 0 7.5-3.358 7.5-7.5s-3.358-7.5-7.5-7.5z"/><path d="m122.658 394.821h40.407c4.143 0 7.5-3.358 7.5-7.5s-3.357-7.5-7.5-7.5h-40.407c-4.143 0-7.5 3.358-7.5 7.5s3.358 7.5 7.5 7.5z"/><path d="m389.342 416.187h-189.911c-4.143 0-7.5 3.358-7.5 7.5s3.357 7.5 7.5 7.5h189.911c4.143 0 7.5-3.358 7.5-7.5s-3.358-7.5-7.5-7.5z"/><path d="m122.658 431.187h40.407c4.143 0 7.5-3.358 7.5-7.5s-3.357-7.5-7.5-7.5h-40.407c-4.143 0-7.5 3.358-7.5 7.5s3.358 7.5 7.5 7.5z"/><path d="m389.342 452.553h-189.911c-4.143 0-7.5 3.358-7.5 7.5s3.357 7.5 7.5 7.5h189.911c4.143 0 7.5-3.358 7.5-7.5s-3.358-7.5-7.5-7.5z"/><path d="m122.658 467.553h40.407c4.143 0 7.5-3.358 7.5-7.5s-3.357-7.5-7.5-7.5h-40.407c-4.143 0-7.5 3.358-7.5 7.5s3.358 7.5 7.5 7.5z"/></g></g></svg>