<?xml version="1.0" encoding="iso-8859-1"?>
<!-- Generator: Adobe Illustrator 19.0.0, SVG Export Plug-In . SVG Version: 6.00 Build 0)  -->
<svg version="1.1" id="Capa_1" xmlns="http://www.w3.org/2000/svg" xmlns:xlink="http://www.w3.org/1999/xlink" x="0px" y="0px"
	 viewBox="0 0 512.001 512.001" style="enable-background:new 0 0 512.001 512.001;" xml:space="preserve">
<g>
	<g>
		<path d="M357.191,118.807c-32.602-29.175-74.71-42.555-118.567-37.677c-34.343,3.82-66.757,19.799-91.271,44.993
			c-24.496,25.175-39.614,58.011-42.568,92.461c-2.559,29.836,3.529,59.34,17.605,85.321c13.563,25.035,33.85,45.724,58.668,59.831
			c12.114,6.886,19.346,18.828,19.346,31.945v60.724c0,12.976,10.557,23.532,23.532,23.532h0.516v8.532
			c0,12.976,10.557,23.532,23.532,23.532h16.032c12.976,0,23.532-10.557,23.532-23.532v-8.532h0.516
			c12.976,0,23.532-10.557,23.532-23.532v-59.449c0-13.785,7.586-26.399,20.294-33.743c22.658-13.094,41.658-31.901,54.946-54.387
			c13.71-23.198,20.956-49.78,20.956-76.875C407.792,188.826,389.349,147.586,357.191,118.807z M272.55,488.468L272.55,488.468
			c-0.001,4.705-3.829,8.532-8.533,8.532h-16.032c-4.705,0-8.532-3.828-8.532-8.532v-8.532h33.097V488.468z M296.597,432.872h-0.516
			c-4.142,0-7.5,3.358-7.5,7.5c0,4.142,3.358,7.5,7.5,7.5h0.516v8.532c0.001,4.704-3.827,8.532-8.532,8.532h-64.129
			c-4.705,0-8.532-3.828-8.532-8.532v-8.532h48.613c4.142,0,7.5-3.358,7.5-7.5c0-4.142-3.358-7.5-7.5-7.5h-48.613v-17.064h81.193
			V432.872z M324.386,350.225c-17.4,10.056-27.789,27.525-27.789,46.73v3.852h-81.193v-5.127c0-18.305-10.32-35.542-26.934-44.985
			c-6.862-3.9-13.335-8.364-19.371-13.321c1.482-1.114,3.085-2.068,4.781-2.822l20.778-9.235
			c18.23,12.009,39.352,18.344,61.343,18.344c21.961,0,43.102-6.347,61.331-18.35l20.79,9.24c1.719,0.764,3.32,1.705,4.794,2.815
			C337.117,342.137,330.923,346.447,324.386,350.225z M221.434,209.138c-2.808-3.043-7.553-3.234-10.598-0.424
			c-3.751,3.462-7.499,5.7-11.137,6.65c-0.088,0.023-0.153,0.033-0.199,0.037c-0.054-0.104-0.127-0.325-0.127-0.678v-14.835
			c0-26.805,21.808-48.613,48.613-48.613h16.032c26.806,0,48.613,21.808,48.613,48.613v1.635c0,0.243-0.145,0.454-0.338,0.492
			c-44.912,8.873-67.437-7.847-75.037-15.446c-2.929-2.929-7.678-2.929-10.606,0c-2.929,2.929-2.929,7.678,0,10.606
			c23.291,23.29,57.275,23.711,77.965,21.224v13.553c0,26.805-21.808,48.613-48.613,48.613s-48.613-21.808-48.613-48.613v-3.373
			c4.68-1.855,9.248-4.807,13.621-8.843C224.053,216.927,224.244,212.182,221.434,209.138z M231.438,293.678v-3.052
			c7.562,3.178,15.861,4.939,24.565,4.939c8.703,0,17.001-1.76,24.563-4.938v3.051c0,9.29,5.485,17.73,13.975,21.504l5.955,2.647
			c-13.676,7.106-28.843,10.833-44.495,10.833c-15.67,0-30.824-3.725-44.494-10.833l5.956-2.647
			C225.952,311.409,231.438,302.968,231.438,293.678z M373.925,301.193c-5.569,9.424-12.263,18.118-19.872,25.924
			c-2.952-2.555-6.276-4.69-9.838-6.273l-43.582-19.37c-3.079-1.368-5.067-4.429-5.067-7.797V281.71
			c14.64-11.665,24.05-29.628,24.05-49.758v-16.847c4.823-2.665,8.016-7.815,8.016-13.583v-1.635
			c0-35.076-28.537-63.613-63.613-63.613h-16.032c-35.076,0-63.613,28.537-63.613,63.613v14.835c0,5.07,2.182,9.663,5.985,12.602
			c0.645,0.498,1.324,0.936,2.031,1.316v3.312c0,20.13,9.409,38.093,24.048,49.757v11.969c0,3.368-1.989,6.429-5.067,7.797
			l-43.582,19.37c-3.574,1.588-6.904,3.714-9.857,6.273c-8.774-9.001-16.308-19.199-22.354-30.359
			c-12.675-23.397-18.156-49.986-15.848-76.895c2.659-31.007,16.287-60.583,38.373-83.281c22.098-22.709,51.283-37.108,82.18-40.545
			c5.338-0.594,10.646-0.888,15.91-0.888c33.739,0,65.58,12.091,90.995,34.835c28.982,25.937,45.604,63.102,45.604,101.966
			C392.792,256.363,386.268,280.306,373.925,301.193z"/>
	</g>
</g>
<g>
	<g>
		<path d="M256.001,0c-4.142,0-7.5,3.358-7.5,7.5v48.097c0,4.142,3.358,7.5,7.5,7.5c4.142,0,7.5-3.358,7.5-7.5V7.5
			C263.501,3.358,260.143,0,256.001,0z"/>
	</g>
</g>
<g>
	<g>
		<path d="M480.453,224.452h-48.097c-4.142,0-7.5,3.358-7.5,7.5c0,4.142,3.358,7.5,7.5,7.5h48.097c4.142,0,7.5-3.358,7.5-7.5
			C487.953,227.81,484.595,224.452,480.453,224.452z"/>
	</g>
</g>
<g>
	<g>
		<path d="M79.646,224.452H31.549c-4.142,0-7.5,3.358-7.5,7.5c0,4.142,3.358,7.5,7.5,7.5h48.097c4.142,0,7.5-3.358,7.5-7.5
			C87.146,227.81,83.788,224.452,79.646,224.452z"/>
	</g>
</g>
<g>
	<g>
		<path d="M420.015,67.937c-2.928-2.929-7.677-2.929-10.606,0l-34.01,34.01c-2.929,2.929-2.929,7.678,0,10.606
			c1.464,1.464,3.384,2.197,5.303,2.197s3.839-0.732,5.303-2.197l34.01-34.01C422.944,75.614,422.944,70.865,420.015,67.937z"/>
	</g>
</g>
<g>
	<g>
		<path d="M136.602,351.35c-2.928-2.929-7.677-2.929-10.606,0l-34.01,34.01c-2.929,2.929-2.929,7.678,0,10.606
			c1.464,1.464,3.384,2.197,5.303,2.197s3.839-0.732,5.303-2.197l34.01-34.01C139.531,359.027,139.531,354.278,136.602,351.35z"/>
	</g>
</g>
<g>
	<g>
		<path d="M420.016,385.36l-34.01-34.01c-2.929-2.929-7.678-2.929-10.606,0c-2.929,2.929-2.929,7.678,0,10.606l34.01,34.01
			c1.464,1.464,3.384,2.197,5.303,2.197s3.839-0.732,5.303-2.197C422.945,393.037,422.945,388.288,420.016,385.36z"/>
	</g>
</g>
<g>
	<g>
		<path d="M136.602,101.947l-34.01-34.01c-2.929-2.929-7.678-2.929-10.606,0c-2.929,2.929-2.929,7.678,0,10.606l34.01,34.01
			c1.464,1.464,3.384,2.197,5.303,2.197s3.839-0.732,5.303-2.197C139.531,109.624,139.531,104.875,136.602,101.947z"/>
	</g>
</g>
<g>
</g>
<g>
</g>
<g>
</g>
<g>
</g>
<g>
</g>
<g>
</g>
<g>
</g>
<g>
</g>
<g>
</g>
<g>
</g>
<g>
</g>
<g>
</g>
<g>
</g>
<g>
</g>
<g>
</g>
</svg>
