<?xml version="1.0" ?><svg height="64px" id="SVGRoot" version="1.1" viewBox="0 0 64 64" width="64px" xmlns="http://www.w3.org/2000/svg" xmlns:cc="http://creativecommons.org/ns#" xmlns:dc="http://purl.org/dc/elements/1.1/" xmlns:inkscape="http://www.inkscape.org/namespaces/inkscape" xmlns:rdf="http://www.w3.org/1999/02/22-rdf-syntax-ns#" xmlns:sodipodi="http://sodipodi.sourceforge.net/DTD/sodipodi-0.dtd" xmlns:svg="http://www.w3.org/2000/svg"><defs id="defs3848"/><g id="layer1"><g id="g5168" style="stroke:#000000" transform="translate(36.000004,-27.250001)"><polygon class="fil0 str0" id="polygon215" points="3229,9402 3229,9815 2607,9815 2607,9402 " style="clip-rule:evenodd;fill:none;fill-rule:evenodd;stroke:#000000;stroke-width:20.83460045;stroke-linecap:round;stroke-linejoin:round;image-rendering:optimizeQuality;shape-rendering:geometricPrecision;text-rendering:geometricPrecision" transform="matrix(0.09599676,0,0,0.09599676,-284.11855,-871.0546)"/><line class="fil0 str0" id="line217" style="clip-rule:evenodd;fill:none;fill-rule:evenodd;stroke:#000000;stroke-width:2.00005412;stroke-linecap:round;stroke-linejoin:round;image-rendering:optimizeQuality;shape-rendering:geometricPrecision;text-rendering:geometricPrecision" x1="-28.191179" x2="20.191189" y1="65.585785" y2="65.585785"/><polygon class="fil0 str0" id="polygon219" points="2976,9815 2976,9913 2860,9913 2860,9815 " style="clip-rule:evenodd;fill:none;fill-rule:evenodd;stroke:#000000;stroke-width:20.83460045;stroke-linecap:round;stroke-linejoin:round;image-rendering:optimizeQuality;shape-rendering:geometricPrecision;text-rendering:geometricPrecision" transform="matrix(0.09599676,0,0,0.09599676,-284.11855,-871.0546)"/><polyline class="fil0 str0" id="polyline221" points="2976,9867 3011,9867 3038,9980 2798,9980 2823,9867 2857,9867 " style="clip-rule:evenodd;fill:none;fill-rule:evenodd;stroke:#000000;stroke-width:20.83460045;stroke-linecap:round;stroke-linejoin:round;image-rendering:optimizeQuality;shape-rendering:geometricPrecision;text-rendering:geometricPrecision" transform="matrix(0.09599676,0,0,0.09599676,-284.11855,-871.0546)"/><path class="fil0 str1" d="m 0.12786432,71.153598 c 0,2.303922 -1.82393802,4.127861 -4.12786102,4.127861 -2.303922,0 -4.12786,-1.727942 -4.12786,-4.127861" id="path223" style="clip-rule:evenodd;fill:none;fill-rule:evenodd;stroke:#000000;stroke-width:2.00005412;image-rendering:optimizeQuality;shape-rendering:geometricPrecision;text-rendering:geometricPrecision"/><polyline class="fil0 str0" id="polyline225" points="2690,9707 2778,9619 2845,9675 2918,9599 2976,9646 3138,9484 " style="clip-rule:evenodd;fill:none;fill-rule:evenodd;stroke:#000000;stroke-width:20.83460045;stroke-linecap:round;stroke-linejoin:round;image-rendering:optimizeQuality;shape-rendering:geometricPrecision;text-rendering:geometricPrecision" transform="matrix(0.09599676,0,0,0.09599676,-284.11855,-871.0546)"/></g></g></svg>