<svg xmlns="http://www.w3.org/2000/svg" viewBox="0 0 201.93 54.447"><defs><style>.a{fill:#6a4c9f;}.b{fill:#a479b5;}.c{fill:#5b5b5b;}</style></defs><g transform="translate(15.594 16.651)"><rect class="a" width="8.722" height="16.123"/></g><g transform="translate(32.774 16.651)"><rect class="a" width="8.722" height="16.123"/></g><g transform="translate(8.722)"><path class="b" d="M43.21,12.687H36.867c0-1.586-.264-6.343-4.229-6.343H13.872c-3.965,0-4.229,4.758-4.229,6.343H3.3C3.3,6.343,6.472,0,13.872,0H32.9C40.039,0,43.21,6.343,43.21,12.687Z" transform="translate(-3.3)"/></g><g transform="translate(0 16.651)"><path class="a" d="M49.161,6.3c0,2.907-.264,8.193-.529,11.894-.529,4.229-.793,8.722-1.85,12.422-2.114,1.057-9.515,2.114-18.237,2.114h0c-8.722,0-16.123-1.057-18.237-2.114-1.057-3.7-1.322-8.193-1.85-12.422,0-3.7-.264-8.986-.264-11.894H0c0,3.172.264,7.665.529,11.629.529,5.022,1.057,11.1,2.379,15.594,1.322,4.229,6.872,5.55,12.158,6.343a106.94,106.94,0,0,0,13.744.793h0a106.94,106.94,0,0,0,13.744-.793c5.286-.793,10.837-2.114,12.158-6.343,1.322-4.493,1.85-10.572,2.379-15.594.264-3.965.529-8.722.529-11.629H49.161Z" transform="translate(0 -6.3)"/></g><g transform="translate(74.006 6.343)"><path class="c" d="M53.638,24.6v15.33a1.137,1.137,0,0,1-1.057,1.057H47.294a1.137,1.137,0,0,1-1.057-1.057V24.6c0-3.172-1.057-4.758-4.758-4.758A8.442,8.442,0,0,0,35.4,22.487V39.931a1.137,1.137,0,0,1-1.057,1.057H29.057A1.137,1.137,0,0,1,28,39.931V3.457A1.137,1.137,0,0,1,29.057,2.4h5.286A1.137,1.137,0,0,1,35.4,3.457V16.144a12.04,12.04,0,0,1,7.665-2.907C49.937,13.237,53.638,16.408,53.638,24.6Z" transform="translate(-28 -2.4)"/><g transform="translate(47.575 10.572)"><path class="c" d="M73.224,20.673c0,9.779-5.286,14.273-12.422,14.273A12.02,12.02,0,0,1,53.4,32.3V42.874a1.137,1.137,0,0,1-1.057,1.057H47.057A1.137,1.137,0,0,1,46,42.874V8.25a1.137,1.137,0,0,1,1.057-1.057h5.286A1.137,1.137,0,0,1,53.4,8.25V9.307A11.359,11.359,0,0,1,60.8,6.4C68.2,6.4,73.224,11.158,73.224,20.673Zm-7.665,0c0-5.022-2.114-7.665-6.079-7.665a9.236,9.236,0,0,0-5.815,2.114v11.1a9.822,9.822,0,0,0,5.815,2.114C63.444,28.6,65.559,25.959,65.559,20.673Z" transform="translate(-46 -6.4)"/></g><g transform="translate(79.82 10.572)"><path class="c" d="M73.794,28.866A16.061,16.061,0,0,0,80.4,27.28c.529-.264,1.322,0,1.322.529l1.322,3.965a.965.965,0,0,1-.529,1.322c-2.907,1.586-5.815,2.114-9.779,2.114-9.515,0-14.537-5.815-14.537-14.537C58.2,11.422,64.015,6.4,71.415,6.4c7.665,0,12.422,4.493,12.422,13.48v1.85a1.137,1.137,0,0,1-1.057,1.057H66.129C66.658,26.223,68.508,28.866,73.794,28.866Zm-7.4-11.629H76.7c-.264-3.436-1.85-4.758-5.022-4.758C69.037,12.479,66.922,13.536,66.393,17.237Z" transform="translate(-58.2 -6.4)"/></g><g transform="translate(111.801 10.837)"><path class="c" d="M86.423,7.557V12.05a1.137,1.137,0,0,1-1.057,1.057,7.317,7.317,0,0,0-2.379.264A14.224,14.224,0,0,0,77.7,16.015v17.18a1.137,1.137,0,0,1-1.057,1.057H71.357A1.137,1.137,0,0,1,70.3,33.195V8.086a1.137,1.137,0,0,1,1.057-1.057h5.286A1.137,1.137,0,0,1,77.7,8.086V9.672A12.023,12.023,0,0,1,84.044,6.5H85.1A1.209,1.209,0,0,1,86.423,7.557Z" transform="translate(-70.3 -6.5)"/></g><g transform="translate(32.774 1.057)"><g transform="translate(0 10.308)"><path class="c" d="M41.457,6.7h5.286A1.137,1.137,0,0,1,47.8,7.757V32.866a1.137,1.137,0,0,1-1.057,1.057H41.457A1.137,1.137,0,0,1,40.4,32.866V7.757A1.137,1.137,0,0,1,41.457,6.7Z" transform="translate(-40.4 -6.7)"/></g><g transform="translate(0)"><path class="c" d="M47.536,3.857A5.312,5.312,0,0,0,44.1,2.8h0a7.5,7.5,0,0,0-3.436,1.057c-.264,0-.264.264-.264.529V8.35c0,.264,0,.529.264.529A5.312,5.312,0,0,0,44.1,9.936h0a7.5,7.5,0,0,0,3.436-1.057c.264,0,.264-.264.264-.529V4.386A.923.923,0,0,0,47.536,3.857Z" transform="translate(-40.4 -2.8)"/></g></g></g></svg>