<?xml version="1.0" encoding="UTF-8"?>
<!DOCTYPE svg PUBLIC "-//W3C//DTD SVG 1.1//EN" "http://www.w3.org/Graphics/SVG/1.1/DTD/svg11.dtd">
<!-- Creator: CorelDRAW 2019 (64 Bit) -->
<svg xmlns="http://www.w3.org/2000/svg" xml:space="preserve" width="297mm" height="62.592mm" version="1.1" style="shape-rendering:geometricPrecision; text-rendering:geometricPrecision; image-rendering:optimizeQuality; fill-rule:evenodd; clip-rule:evenodd"
viewBox="0 0 29700 6259.2"
 xmlns:xlink="http://www.w3.org/1999/xlink">
 <defs>
  <style type="text/css">
   <![CDATA[
    .fil3 {fill:black;fill-rule:nonzero}
    .fil1 {fill:#F25221;fill-rule:nonzero}
    .fil0 {fill:url(#id0)}
    .fil2 {fill:url(#id1)}
   ]]>
  </style>
  <linearGradient id="id0" gradientUnits="userSpaceOnUse" x1="3612.02" y1="4929.65" x2="1522.69" y2="3622.82">
   <stop offset="0" style="stop-opacity:1; stop-color:#F25221"/>
   <stop offset="1" style="stop-opacity:1; stop-color:#9F3410"/>
  </linearGradient>
  <linearGradient id="id1" gradientUnits="userSpaceOnUse" xlink:href="#id0" x1="4838" y1="1349.85" x2="6927.33" y2="2656.69">
  </linearGradient>
 </defs>
 <g id="Camada_x0020_1">
  <metadata id="CorelCorpID_0Corel-Layer"/>
  <g id="_1879591127792">
   <g>
    <polygon class="fil0" points="3832.73,5681.51 3832.73,3986.94 745.85,2292.49 745.85,3986.94 "/>
    <polygon class="fil1" points="3832.73,597.92 745.85,2292.49 745.85,3986.94 3832.73,2292.49 "/>
    <polygon class="fil2" points="7704.1,3987.09 7704.1,2292.49 4617.26,597.92 4617.26,2292.49 "/>
    <polygon class="fil1" points="4617.26,5681.51 7704.1,3987.09 7704.1,2292.49 4617.26,3987.09 "/>
   </g>
   <g>
    <path class="fil3" d="M17005.71 597.92l-628.9 209.87 0 4772.52 628.9 0 0 -4982.39zm6726.23 0l-628.94 209.87 0 2330.43c-206.99,-228.74 -522.22,-388.11 -859.81,-388.11 -451.28,0 -814.45,173.89 -1059.47,449.58 -244.84,275.79 -372.24,649.5 -372.24,1047.64 0,394.72 126.4,752.58 366.48,1011.82 240.13,259.25 593.23,416.02 1027.38,416.02 343.19,0 679.02,-160.48 897.66,-394.42l0 299.56 628.94 0 0 -4982.39zm-14168.59 198.77l-666.6 205.6 0 4578.02 666.6 0 0 -4783.62zm1523.73 1951.13l-628.9 210.02 0 2622.47 628.9 0 0 -1661.76c0,-344.74 323.29,-595.67 651.53,-595.67 429.54,0 657.68,258.99 657.68,595.67l0 1661.76 628.94 0 0 -1725.08c0,-582.57 -458.06,-1098.79 -1103.66,-1098.79 -341.9,0 -638.15,144.53 -834.49,333.84l0 -342.46zm7262.55 6.34l-628.75 210.01 0 1618.28c0,582 451.58,1099.06 1097.17,1099.06 346.07,0 644.2,-144.83 841.1,-336.82l0 235.62 628.64 0 0 -2826.15 -628.64 210.01 0 1561.28c0,337.7 -323.44,589.61 -651.65,589.61 -218.53,0 -380.6,-67.35 -489.71,-171.87 -109.11,-104.51 -168.16,-248.89 -168.16,-417.74l0 -1771.29zm-3318.63 2.28c-799.05,0 -1482.37,657.43 -1482.37,1465.72 0,802.37 683.32,1459.35 1482.37,1459.35 228.33,0 510.76,-53.99 779.82,-229.18l39.87 -25.76 0 -714.69 -150.29 158.35c0,0 -47.94,51.36 -158.79,109.08 -110.84,57.6 -279.25,116.74 -510.61,116.74 -490.12,0 -859.81,-387.79 -859.81,-873.89 0,-493.03 368.95,-874.07 859.81,-874.07 230.91,0 399.32,60.32 510.03,119.47 110.69,59.03 158.49,111.85 158.49,111.85l151.17 163.25 0 -732.57 -41.2 -25.47c-267.73,-167.71 -548.43,-228.18 -778.49,-228.18zm10639.65 0c-745.21,0 -1419.07,583.57 -1419.07,1522.59 0,434.83 181.82,791.26 468.27,1032.52 286.33,241.27 674.01,369.96 1089.72,369.96 478.33,0 779.48,-149.14 1036,-303.29l42.31 -25.5 0 -627.17 -131.86 79.3c-254.19,152.9 -458.9,291.2 -946.45,291.2 -275.54,0 -488.72,-70.24 -640.29,-188.12 -124.66,-97.03 -199.95,-234.93 -244.28,-396.16l2150.74 0 1.44 -85.79c9.8,-537.22 -127.24,-956.25 -378.43,-1241 -251.36,-284.86 -613.82,-428.54 -1028.1,-428.54zm-3395.77 585.31c486.69,0 828.12,351.22 828.12,874.07 0,509.43 -342.16,867.59 -828.12,867.59 -479.21,0 -822.11,-358.16 -822.11,-867.59 0,-522.85 342.16,-874.07 822.11,-874.07zm3395.77 12.68c258.1,0 440.62,99.16 563.56,232.19 98.02,106.06 144.97,232.02 164.39,345.89l-1468 0c104.8,-396.85 388.23,-578.08 740.05,-578.08zm0 0z"/>
    <path class="fil3" d="M27110.86 2842.97c-79.15,0 -145.09,-17.58 -198.07,-52.41 -52.96,-34.56 -91.69,-75.43 -116.3,-122.63 -24.92,-47.21 -37.44,-88.11 -37.44,-122.65 0,-39.61 15.84,-76.02 47.23,-109.41 31.51,-33.09 66.93,-56.13 106.51,-69.09l22.47 -5.2c4.87,0 8.19,2.02 9.77,6.34 1.44,4.17 2.33,10.35 2.33,18.43 9.91,92.86 30.66,169.44 62.16,229.77 31.4,60.13 92.43,90.39 183.11,90.39 61.03,0 111.99,-18.29 153.16,-54.72 41.46,-36.56 76.17,-95.56 104.21,-177.33 28.38,-81.77 54.14,-193.62 77.17,-335.72l213.04 -1354.83 -12.64 0c-33.13,0 -76.87,-5.75 -131.31,-17.28 -82.61,-14.97 -146.1,-22.45 -190.58,-22.45 -77.58,0 -135.32,10.35 -173.32,31.07 -38,20.74 -74.25,49.38 -108.82,85.82 -10.06,11.5 -18.86,20.72 -26.5,27.64 -7.33,6.6 -14.22,9.77 -20.7,9.77 -11.54,0 -17.29,-5.9 -17.29,-17.84l2.33 -27.08c14.96,-87.53 55.82,-152.02 122.63,-193.47 66.77,-41.46 162.07,-62.17 286.15,-62.17 52.55,0 107.82,4.31 165.83,12.68 11.53,1.58 34.86,4.01 70.28,7.48 35.67,3.16 72.52,4.6 110.55,4.6 34.53,0 62.17,-1.44 82.91,-4.6 20.72,-3.47 44.33,-10.11 70.79,-20.16 -25.01,71.12 -41.3,131.16 -48.94,180.24 -7.33,48.78 -11.78,80.45 -13.22,95l-171.02 1114.16c-42.61,276.09 -118.48,487.43 -227.45,634.54 -109.12,147.4 -242.11,221.11 -399.03,221.11zm0 0z"/>
    <path class="fil3" d="M28125.16 2344.33c-6.64,0 -11.99,-1.43 -16.14,-4.05 -3.88,-2.29 -5.76,-5.05 -5.76,-8.07 0,-5.01 4.75,-15.66 14.42,-32.24 9.91,-16.84 17.39,-39.99 22.43,-69.66 6.49,-34.81 12.24,-66.81 17.29,-95.59 4.9,-28.78 9.92,-55.57 14.96,-80.59 41.46,-226.45 69.1,-384.8 82.91,-475.05 14.12,-90.1 20.31,-155.76 18.43,-196.93 0,-21.45 -1.73,-37.15 -5.19,-47.21 -3.17,-9.95 -10.36,-14.95 -21.86,-14.95 -15,0 -33.98,12.52 -57.01,37.39 -23.02,24.62 -44.63,53.44 -64.48,86.38 -8.08,14.97 -15.56,27.93 -22.48,38.59 -6.61,10.8 -11.94,18.72 -16.11,23.62 -3.91,5.01 -8.37,7.48 -13.27,7.48 -6.59,0 -11.49,-2.47 -14.96,-7.48 -3.16,-4.9 -4.6,-11.54 -4.6,-19.6 0,-31.37 17.58,-75.15 52.99,-131.27 35.67,-56.41 77.72,-106.53 126.1,-150.28 48.65,-44.07 92.13,-66.22 130.13,-66.22 31.36,0 53.24,12.53 65.63,37.41 12.23,25.05 18.42,63.78 18.42,116.34 0,72.96 -15.55,171.42 -46.65,295.36l4.6 0c156.92,-299.42 302.33,-449.11 435.92,-449.11 34.82,0 61.72,9.65 80.6,28.78 19.15,18.87 28.78,45.77 28.78,80.63 0,36.55 -7.93,73.7 -23.59,111.7 -15.85,37.99 -34.86,69.53 -57.01,94.41 -22.33,24.61 -42.6,36.86 -61.02,36.86 -11.54,0 -15.56,-7.49 -12.13,-22.45 4.9,-23.04 7.52,-41.01 7.52,-54.13 0,-39.88 -21.6,-59.89 -64.49,-59.89 -51.11,0 -102.37,29.81 -153.75,89.25 -51.11,59.59 -96.03,132.3 -134.76,218.24 -38.84,86.08 -65.63,164.69 -80.59,236.07 -19.57,76.02 -31.96,155.32 -36.85,237.8 -3.47,31.54 -18.14,63.35 -43.78,95.59 -25.32,32.24 -54.54,59.18 -87.52,80.62 -33.09,21.46 -58.71,32.25 -77.13,32.25zm0 0z"/>
   </g>
  </g>
 </g>
</svg>
